<svg width="34" height="30" viewBox="0 0 34 30" fill="none" xmlns="http://www.w3.org/2000/svg">
<path d="M27.4167 22.1501V25.9001C27.4181 26.2482 27.3444 26.5928 27.2003 26.9118C27.0562 27.2308 26.8448 27.5171 26.5798 27.7525C26.3147 27.9878 26.0017 28.167 25.661 28.2785C25.3202 28.39 24.9591 28.4315 24.6008 28.4001C20.6262 27.9822 16.8082 26.6678 13.4537 24.5626C10.3329 22.6435 7.68689 20.0828 5.70375 17.0626C3.5208 13.8016 2.16231 10.0889 1.73833 6.22512C1.70605 5.87945 1.7485 5.53107 1.86297 5.20215C1.97745 4.87323 2.16144 4.57098 2.40323 4.31465C2.64503 4.05831 2.93933 3.85351 3.26739 3.71327C3.59546 3.57304 3.9501 3.50045 4.30875 3.50012H8.18375C8.8106 3.49415 9.41831 3.70897 9.8936 4.10454C10.3689 4.5001 10.6793 5.04943 10.7671 5.65012C10.9306 6.8502 11.234 8.02853 11.6712 9.16262C11.845 9.61003 11.8826 10.0963 11.7796 10.5637C11.6766 11.0312 11.4373 11.4603 11.09 11.8001L9.44958 13.3876C11.2883 16.5171 13.9658 19.1082 17.1996 20.8876L18.84 19.3001C19.1912 18.964 19.6346 18.7324 20.1176 18.6327C20.6006 18.533 21.1031 18.5694 21.5654 18.7376C22.7373 19.1608 23.9549 19.4543 25.195 19.6126C25.8224 19.6983 26.3955 20.0041 26.8051 20.472C27.2147 20.9398 27.4324 21.5371 27.4167 22.1501Z" stroke="#AAAAAA" stroke-width="2.5" stroke-linecap="round" stroke-linejoin="round"/>
<path d="M25.5 5.37502V8.20836M25.5 11.0417H25.5071M24.2887 1.73419L18.2892 11.75C18.1655 11.9642 18.1 12.2071 18.0993 12.4545C18.0986 12.7018 18.1627 12.9451 18.2852 13.16C18.4077 13.3749 18.5843 13.554 18.7975 13.6794C19.0107 13.8049 19.2531 13.8723 19.5004 13.875H31.4996C31.7469 13.8723 31.9892 13.8049 32.2024 13.6794C32.4156 13.554 32.5923 13.3749 32.7148 13.16C32.8373 12.9451 32.9014 12.7018 32.9007 12.4545C32.9 12.2071 32.8345 11.9642 32.7108 11.75L26.7112 1.73419C26.585 1.52602 26.4072 1.3539 26.195 1.23445C25.9828 1.115 25.7435 1.05225 25.5 1.05225C25.2565 1.05225 25.0171 1.115 24.805 1.23445C24.5928 1.3539 24.415 1.52602 24.2887 1.73419Z" stroke="#AAAAAA" stroke-width="2" stroke-linecap="round" stroke-linejoin="round"/>
</svg>
